HIERARCHY
ROOT hip
{
  OFFSET 0.00112043 5.09927 -9.65472
  CHANNELS 6 Xposition Yposition Zposition Zrotation Xrotation Yrotation
  JOINT abdomen
  {
    OFFSET 0 -1.186 -1.5018
    CHANNELS 3 Zrotation Xrotation Yrotation
    JOINT abdomen2
    {
      OFFSET 0 9.964 0.2134
      CHANNELS 3 Zrotation Xrotation Yrotation
      JOINT chest
      {
        OFFSET 0 13.134 -3.2573
        CHANNELS 3 Zrotation Xrotation Yrotation
        JOINT neck
        {
          OFFSET 0 20.686 -1.6905
          CHANNELS 3 Zrotation Xrotation Yrotation
          JOINT head
          {
            OFFSET 0 7.238 -0.1237
            CHANNELS 3 Zrotation Xrotation Yrotation
            End Site
            {
              OFFSET 0 0 0
            }
          }
        }
        JOINT lCollar
        {
          OFFSET 1.7069 20.075 5.0056
          CHANNELS 3 Zrotation Xrotation Yrotation
          JOINT lShldr
          {
            OFFSET 13.6458 -0.047 -4.849
            CHANNELS 3 Zrotation Xrotation Yrotation
            JOINT lForeArm
            {
              OFFSET 28.3255 -0.9759 2.2888
              CHANNELS 3 Zrotation Xrotation Yrotation
              JOINT lHand
              {
                OFFSET 22.1583 -0.53 10.8316
                CHANNELS 3 Zrotation Xrotation Yrotation
                JOINT lThumb1
                {
                  OFFSET 0.786 0.112 2.5817
                  CHANNELS 3 Zrotation Xrotation Yrotation
                  JOINT lThumb2
                  {
                    OFFSET 0.3601 -0.878 4.2331
                    CHANNELS 3 Zrotation Xrotation Yrotation
                    JOINT lThumb2_End
                    {
                      OFFSET 1.8127 -1.216 2.2227
                      CHANNELS 3 Zrotation Xrotation Yrotation
                      End Site
                      {
                        OFFSET 0.0181 -0.0122 0.0222
                      }
                    }
                  }
                }
                JOINT lCarpal1
                {
                  OFFSET 0.9571 1.114 1.7695
                  CHANNELS 3 Zrotation Xrotation Yrotation
                  JOINT lIndex1
                  {
                    OFFSET 4.1246 0.487 4.1451
                    CHANNELS 3 Zrotation Xrotation Yrotation
                    JOINT lIndex2
                    {
                      OFFSET 3.4052 -1.454 2.7682
                      CHANNELS 3 Zrotation Xrotation Yrotation
                      JOINT lIndex2_End
                      {
                        OFFSET 1.4531 -1.795 1.2713
                        CHANNELS 3 Zrotation Xrotation Yrotation
                        End Site
                        {
                          OFFSET 0.0145 -0.0179 0.0127
                        }
                      }
                    }
                  }
                  JOINT lMid1
                  {
                    OFFSET 5.6954 0.21 2.1184
                    CHANNELS 3 Zrotation Xrotation Yrotation
                    JOINT lMid2
                    {
                      OFFSET 3.9766 -1.54 2.3863
                      CHANNELS 3 Zrotation Xrotation Yrotation
                      JOINT lMid2_End
                      {
                        OFFSET 1.4042 -1.926 1.125
                        CHANNELS 3 Zrotation Xrotation Yrotation
                        End Site
                        {
                          OFFSET 0.014 -0.0193 0.0113
                        }
                      }
                    }
                  }
                }
                JOINT lCarpal2
                {
                  OFFSET 2.0956 0.66 -0.3894
                  CHANNELS 3 Zrotation Xrotation Yrotation
                  JOINT lRing1
                  {
                    OFFSET 5.0395 -0.09 2.4971
                    CHANNELS 3 Zrotation Xrotation Yrotation
                    JOINT lRing2
                    {
                      OFFSET 3.7921 -1.552 1.4806
                      CHANNELS 3 Zrotation Xrotation Yrotation
                      JOINT lRing2_End
                      {
                        OFFSET 1.4655 -1.808 0.9609
                        CHANNELS 3 Zrotation Xrotation Yrotation
                        End Site
                        {
                          OFFSET 0.0147 -0.0181 0.0096
                        }
                      }
                    }
                  }
                  JOINT lPinky1
                  {
                    OFFSET 4.9141 -1.269 0.3591
                    CHANNELS 3 Zrotation Xrotation Yrotation
                    JOINT lPinky2
                    {
                      OFFSET 3.1477 -1.685 0.8462
                      CHANNELS 3 Zrotation Xrotation Yrotation
                      JOINT lPinky2_End
                      {
                        OFFSET 0.8055 -1.585 0.7955
                        CHANNELS 3 Zrotation Xrotation Yrotation
                        End Site
                        {
                          OFFSET 0.0081 -0.0158 0.008
                        }
                      }
                    }
                  }
                }
              }
            }
          }
        }
        JOINT rCollar
        {
          OFFSET -1.7069 20.075 5.0056
          CHANNELS 3 Zrotation Xrotation Yrotation
          JOINT rShldr
          {
            OFFSET -13.6458 -0.047 -4.849
            CHANNELS 3 Zrotation Xrotation Yrotation
            JOINT rForeArm
            {
              OFFSET -28.3255 -0.9759 2.2888
              CHANNELS 3 Zrotation Xrotation Yrotation
              JOINT rHand
              {
                OFFSET -22.1583 -0.53 10.8316
                CHANNELS 3 Zrotation Xrotation Yrotation
                JOINT rThumb1
                {
                  OFFSET -0.786 0.112 2.5817
                  CHANNELS 3 Zrotation Xrotation Yrotation
                  JOINT rThumb2
                  {
                    OFFSET -0.3601 -0.878 4.2331
                    CHANNELS 3 Zrotation Xrotation Yrotation
                    JOINT rThumb2_End
                    {
                      OFFSET -1.8127 -1.216 2.2227
                      CHANNELS 3 Zrotation Xrotation Yrotation
                      End Site
                      {
                        OFFSET -0.0181 -0.0122 0.0222
                      }
                    }
                  }
                }
                JOINT rCarpal1
                {
                  OFFSET -0.9571 1.114 1.7695
                  CHANNELS 3 Zrotation Xrotation Yrotation
                  JOINT rIndex1
                  {
                    OFFSET -4.1246 0.487 4.1451
                    CHANNELS 3 Zrotation Xrotation Yrotation
                    JOINT rIndex2
                    {
                      OFFSET -3.4052 -1.454 2.7682
                      CHANNELS 3 Zrotation Xrotation Yrotation
                      JOINT rIndex2_End
                      {
                        OFFSET -1.4531 -1.795 1.2713
                        CHANNELS 3 Zrotation Xrotation Yrotation
                        End Site
                        {
                          OFFSET -0.0145 -0.018 0.0127
                        }
                      }
                    }
                  }
                  JOINT rMid1
                  {
                    OFFSET -5.6954 0.21 2.1184
                    CHANNELS 3 Zrotation Xrotation Yrotation
                    JOINT rMid2
                    {
                      OFFSET -3.9766 -1.54 2.3863
                      CHANNELS 3 Zrotation Xrotation Yrotation
                      JOINT rMid2_End
                      {
                        OFFSET -1.4042 -1.926 1.125
                        CHANNELS 3 Zrotation Xrotation Yrotation
                        End Site
                        {
                          OFFSET -0.014 -0.0193 0.0113
                        }
                      }
                    }
                  }
                }
                JOINT rCarpal2
                {
                  OFFSET -2.0956 0.66 -0.3894
                  CHANNELS 3 Zrotation Xrotation Yrotation
                  JOINT rRing1
                  {
                    OFFSET -5.0395 -0.09 2.4971
                    CHANNELS 3 Zrotation Xrotation Yrotation
                    JOINT rRing2
                    {
                      OFFSET -3.7921 -1.552 1.4806
                      CHANNELS 3 Zrotation Xrotation Yrotation
                      JOINT rRing2_End
                      {
                        OFFSET -1.4655 -1.808 0.9609
                        CHANNELS 3 Zrotation Xrotation Yrotation
                        End Site
                        {
                          OFFSET -0.0147 -0.0181 0.0096
                        }
                      }
                    }
                  }
                  JOINT rPinky1
                  {
                    OFFSET -4.9141 -1.269 0.3592
                    CHANNELS 3 Zrotation Xrotation Yrotation
                    JOINT rPinky2
                    {
                      OFFSET -3.1477 -1.685 0.8462
                      CHANNELS 3 Zrotation Xrotation Yrotation
                      JOINT rPinky2_End
                      {
                        OFFSET -0.8055 -1.585 0.7955
                        CHANNELS 3 Zrotation Xrotation Yrotation
                        End Site
                        {
                          OFFSET -0.0081 -0.0158 0.008
                        }
                      }
                    }
                  }
                }
              }
            }
          }
        }
      }
    }
  }
  JOINT lThigh
  {
    OFFSET 8.367 -8.2066 0.5982
    CHANNELS 3 Zrotation Xrotation Yrotation
    JOINT lShin
    {
      OFFSET 2.1923 -43.463 -0.4932
      CHANNELS 3 Zrotation Xrotation Yrotation
      JOINT lFoot
      {
        OFFSET 0.7333 -45.8593 -2.6451
        CHANNELS 3 Zrotation Xrotation Yrotation
        End Site
        {
          OFFSET 2.6618 -4.2699 12.3931
        }
      }
    }
  }
  JOINT rThigh
  {
    OFFSET -8.367 -8.2066 0.5982
    CHANNELS 3 Zrotation Xrotation Yrotation
    JOINT rShin
    {
      OFFSET -2.1923 -43.463 -0.4931
      CHANNELS 3 Zrotation Xrotation Yrotation
      JOINT rFoot
      {
        OFFSET -0.7333 -45.8593 -2.6451
        CHANNELS 3 Zrotation Xrotation Yrotation
        End Site
        {
          OFFSET -2.6618 -4.2699 12.3931
        }
      }
    }
  }
}
MOTION
Frames:	4
Frame Time:	0.0333333
0.0898127 84.5047 4.76853 -0 -7.19894 -0 -0.160873 0.995401 3.26012 -0.378196 1.98001 6.52448 -0.378195 1.98001 6.52448 21.3709 -20.1993 -32.3083 3.457e-007 18.2947 -3.94553e-006 47.658 -10.0278 -17.4565 -61.4605 0.834343 -10.3072 -35.1323 1.80497 -114.746 -26.573 7.28821 -1.99195 -1.23996e-006 -4.16136e-006 1.76128e-006 1.23996e-006 4.16136e-006 -1.76128e-006 -1.23996e-006 -4.16136e-006 1.76128e-006 5.29669e-031 9.54166e-015 -3.18055e-015 -1.23996e-006 -4.16136e-006 1.76128e-006 1.23996e-006 4.16136e-006 -1.76128e-006 -1.23996e-006 -4.16136e-006 1.76128e-006 -1.23996e-006 -4.16136e-006 1.76128e-006 1.23996e-006 4.16136e-006 -1.76128e-006 -1.23996e-006 -4.16136e-006 1.76128e-006 5.29669e-031 9.54166e-015 -3.18055e-015 -1.23996e-006 -4.16136e-006 1.76128e-006 1.23996e-006 4.16136e-006 -1.76128e-006 -1.23996e-006 -4.16136e-006 1.76128e-006 -1.23996e-006 -4.16136e-006 1.76128e-006 1.23996e-006 4.16136e-006 -1.76128e-006 -1.23996e-006 -4.16136e-006 1.76128e-006 10.6639 -10.7925 14.6282 61.0218 0.192848 12.0386 -7.07129 -4.54852 42.5744 57.5461 6.04106 -17.5659 1.07285e-006 6.9692e-007 -1.08886e-006 1.07285e-006 6.9692e-007 -1.08886e-006 2.14569e-006 1.39384e-006 -2.17773e-006 -3.18055e-015 -1.59028e-015 1.98785e-015 1.07285e-006 6.9692e-007 -1.08886e-006 1.07285e-006 6.9692e-007 -1.08886e-006 2.14569e-006 1.39384e-006 -2.17773e-006 1.07285e-006 6.9692e-007 -1.08886e-006 1.07285e-006 6.9692e-007 -1.08886e-006 2.14569e-006 1.39384e-006 -2.17773e-006 -3.18055e-015 -1.59028e-015 1.98785e-015 1.07285e-006 6.9692e-007 -1.08886e-006 1.07285e-006 6.9692e-007 -1.08886e-006 2.14569e-006 1.39384e-006 -2.17773e-006 1.07285e-006 6.9692e-007 -1.08886e-006 1.07285e-006 6.9692e-007 -1.08886e-006 2.14569e-006 1.39384e-006 -2.17773e-006 6.75137 -18.9652 14.5083 4.43835 48.7739 -1.92745 -11.9629 -21.3346 0.47231 -17.5011 -14.654 -13.2931 -1.59825 35.7478 -0.143819 21.3747 -9.21077 0.401617 
0.0894227 84.5497 4.75876 -0 -6.93185 -0 -0.174673 0.885127 3.26051 -0.39949 1.75892 6.52485 -0.39949 1.75891 6.52485 21.3439 -20.0151 -32.385 -2.9057e-006 18.357 3.01035e-006 47.5532 -9.85578 -17.658 -61.5678 0.88777 -10.3023 -35.0693 1.86606 -114.767 -26.6283 7.41673 -1.8399 6.36111e-015 -6.36111e-015 -9.54166e-015 2.73506e-006 1.99126e-006 3.8435e-006 -2.73506e-006 -1.99126e-006 -3.8435e-006 6.36111e-015 -3.18055e-015 -3.18055e-015 9.54166e-015 -6.36111e-015 -0 2.73506e-006 1.99126e-006 3.8435e-006 -2.73506e-006 -1.99126e-006 -3.8435e-006 9.54166e-015 -6.36111e-015 -0 2.73506e-006 1.99126e-006 3.8435e-006 -2.73506e-006 -1.99126e-006 -3.8435e-006 6.36111e-015 -3.18055e-015 -3.18055e-015 9.54166e-015 -6.36111e-015 -0 2.73506e-006 1.99126e-006 3.8435e-006 -2.73506e-006 -1.99126e-006 -3.8435e-006 9.54166e-015 -6.36111e-015 -0 2.73506e-006 1.99126e-006 3.8435e-006 -2.73506e-006 -1.99126e-006 -3.8435e-006 10.858 -10.381 14.6614 60.9227 0.150825 12.0152 -7.07128 -4.5485 42.5744 57.4979 6.1749 -17.493 -3.18055e-015 4.77083e-015 1.19271e-015 -3.18055e-015 1.59028e-015 3.57812e-015 -2.64834e-031 1.59028e-015 9.54166e-015 -3.18055e-015 1.59028e-015 1.19271e-015 -3.18055e-015 -3.18055e-015 3.97569e-015 -1.32417e-031 1.59028e-015 4.77083e-015 -3.18055e-015 3.18055e-015 3.97569e-015 -3.18055e-015 -3.18055e-015 3.97569e-015 -1.32417e-031 1.59028e-015 4.77083e-015 -3.18055e-015 3.18055e-015 3.97569e-015 -3.18055e-015 1.59028e-015 1.19271e-015 -3.18055e-015 -3.18055e-015 3.97569e-015 -1.32417e-031 1.59028e-015 4.77083e-015 -3.18055e-015 3.18055e-015 3.97569e-015 -3.18055e-015 -3.18055e-015 3.97569e-015 -1.32417e-031 1.59028e-015 4.77083e-015 -3.18055e-015 3.18055e-015 3.97569e-015 6.74721 -19.2087 14.5142 4.39862 48.6663 -1.89927 -11.9368 -21.2562 0.51618 -17.495 -14.8664 -13.3261 -1.56248 35.604 -0.162653 21.3463 -9.13685 0.320731 
0.0890273 84.5945 4.74896 -0 -6.66477 -0 -0.188464 0.774926 3.26083 -0.420768 1.53786 6.52507 -0.420768 1.53786 6.52507 21.3186 -19.8321 -32.4611 -4.63029e-006 18.4192 -2.78399e-006 47.4489 -9.68349 -17.8592 -61.6751 0.941191 -10.2973 -35.0063 1.92716 -114.788 -26.6839 7.54512 -1.6877 -3.18055e-015 -2.22639e-014 6.36111e-015 -2.50315e-006 5.06837e-006 -4.52621e-006 4.3145e-007 -8.73588e-007 -3.58222e-006 -6.36111e-015 3.18055e-015 -0 3.18055e-015 -2.22639e-014 3.18055e-015 -2.50315e-006 5.06837e-006 -4.52621e-006 4.3145e-007 -8.73588e-007 -3.58222e-006 3.18055e-015 -2.22639e-014 3.18055e-015 -2.50315e-006 5.06837e-006 -4.52621e-006 4.3145e-007 -8.73588e-007 -3.58222e-006 -6.36111e-015 3.18055e-015 -0 3.18055e-015 -2.22639e-014 3.18055e-015 -2.50315e-006 5.06837e-006 -4.52621e-006 4.3145e-007 -8.73588e-007 -3.58222e-006 3.18055e-015 -2.22639e-014 3.18055e-015 -2.50315e-006 5.06837e-006 -4.52621e-006 4.3145e-007 -8.73588e-007 -3.58222e-006 11.0516 -9.96948 14.6931 60.8236 0.108844 11.9918 -7.07129 -4.54851 42.5744 57.4496 6.3087 -17.42 3.18055e-015 -3.18055e-015 -6.75868e-015 3.18055e-015 0 -2.38542e-015 3.18055e-015 -9.54166e-015 3.57812e-015 0 0 -5.96354e-015 3.18055e-015 -1.59028e-015 -2.78299e-015 3.18055e-015 -4.77083e-015 3.97569e-016 3.18055e-015 -3.18055e-015 -4.37326e-015 3.18055e-015 -1.59028e-015 -2.78299e-015 3.18055e-015 -4.77083e-015 3.97569e-016 3.18055e-015 -3.18055e-015 -4.37326e-015 0 0 -5.96354e-015 3.18055e-015 -1.59028e-015 -2.78299e-015 3.18055e-015 -4.77083e-015 3.97569e-016 3.18055e-015 -3.18055e-015 -4.37326e-015 3.18055e-015 -1.59028e-015 -2.78299e-015 3.18055e-015 -4.77083e-015 3.97569e-016 3.18055e-015 -3.18055e-015 -4.37326e-015 6.74314 -19.4523 14.5202 4.3591 48.5589 -1.87129 -11.9108 -21.1778 0.559978 -17.489 -15.0787 -13.3592 -1.52683 35.4601 -0.181353 21.318 -9.0628 0.239881 
0.0886245 84.6392 4.73911 -0 -6.39771 -0 -0.202247 0.664721 3.26107 -0.44203 1.31686 6.52511 -0.44203 1.31686 6.52511 21.2922 -19.6479 -32.5374 -8.9591e-007 18.4814 -4.86085e-006 47.3454 -9.51081 -18.0598 -61.7824 0.9946 -10.2922 -34.9432 1.98824 -114.81 -26.7399 7.67334 -1.5353 3.18055e-015 9.54166e-015 -0 -3.18055e-015 9.54166e-015 -0 0 9.54166e-015 -0 3.18055e-015 3.18055e-015 -0 3.18055e-015 1.27222e-014 -0 -3.18055e-015 6.36111e-015 -0 -3.18055e-015 6.36111e-015 -3.18055e-015 3.18055e-015 1.27222e-014 -0 -3.18055e-015 6.36111e-015 -0 -3.18055e-015 6.36111e-015 -3.18055e-015 3.18055e-015 3.18055e-015 -0 3.18055e-015 1.27222e-014 -0 -3.18055e-015 6.36111e-015 -0 -3.18055e-015 6.36111e-015 -3.18055e-015 3.18055e-015 1.27222e-014 -0 -3.18055e-015 6.36111e-015 -0 -3.18055e-015 6.36111e-015 -3.18055e-015 11.2447 -9.5579 14.7234 60.7244 0.0669054 11.9683 -7.0713 -4.54851 42.5744 57.4011 6.44242 -17.3468 1.72093e-006 4.85079e-007 1.38014e-006 0 0 -2.78299e-015 1.0753e-006 6.95114e-007 -1.08721e-006 -3.18055e-015 0 3.97569e-016 1.72093e-006 4.85079e-007 1.38014e-006 -1.65521e-031 -1.59028e-015 -5.96354e-015 1.0753e-006 6.95114e-007 -1.08721e-006 1.72093e-006 4.85079e-007 1.38014e-006 -1.65521e-031 -1.59028e-015 -5.96354e-015 1.0753e-006 6.95114e-007 -1.08721e-006 -3.18055e-015 0 3.97569e-016 1.72093e-006 4.85079e-007 1.38014e-006 -1.65521e-031 -1.59028e-015 -5.96354e-015 1.0753e-006 6.95114e-007 -1.08721e-006 1.72093e-006 4.85079e-007 1.38014e-006 -1.65521e-031 -1.59028e-015 -5.96354e-015 1.0753e-006 6.95114e-007 -1.08721e-006 6.73908 -19.696 14.5262 4.31977 48.4513 -1.84347 -11.8848 -21.0993 0.603731 -17.4831 -15.2911 -13.3922 -1.49135 35.3163 -0.199926 21.2898 -8.98871 0.159082 
